<svg xmlns="http://www.w3.org/2000/svg" width="225" height="225" viewBox="0 0 225 225">
<g>
<path d="M 125.53 189.47 C107.74,192.57 93.58,190.08 75.50,180.68 C69.55,177.59 65.16,174.20 58.40,167.51 C48.22,157.44 42.75,148.72 38.30,135.50 C35.85,128.22 35.60,126.14 35.60,112.50 C35.60,98.90 35.85,96.75 38.28,89.50 C46.49,64.91 65.18,46.26 89.50,38.37 C99.93,34.98 117.93,34.05 128.68,36.34 C153.26,41.57 172.86,57.26 183.43,80.16 C188.77,91.73 190.30,98.90 190.33,112.50 C190.36,127.10 188.80,133.66 181.99,147.50 C171.09,169.68 150.27,185.15 125.53,189.47 ZM 105.71 167.37 C106.09,167.76 109.58,167.95 113.46,167.79 L 120.50 167.50 L 120.79 160.31 L 121.09 153.13 L 124.51 152.00 C129.72,150.28 137.53,142.66 140.70,136.20 C143.32,130.86 143.52,129.56 143.83,115.50 L 144.16 100.50 L 147.08 98.18 C149.40,96.33 150.00,95.06 150.00,92.00 C150.00,86.57 146.58,84.00 139.37,84.00 L 134.00 84.00 L 134.00 72.20 C134.00,59.81 133.43,58.00 129.50,58.00 C125.57,58.00 125.00,59.81 125.00,72.20 L 125.00 84.00 L 101.00 84.00 L 101.00 72.93 C101.00,60.81 100.16,58.00 96.54,58.00 C91.82,58.00 91.00,60.16 91.00,72.57 L 91.00 84.00 L 87.75 84.01 C85.96,84.01 82.86,84.47 80.87,85.02 C74.28,86.85 73.10,95.17 78.92,98.61 L 81.83 100.33 L 82.18 116.42 C82.48,130.67 82.77,132.97 84.72,136.63 C87.88,142.57 95.27,149.55 100.49,151.55 L 105.00 153.27 L 105.00 159.97 C105.00,163.65 105.32,166.98 105.71,167.37 Z" fill="rgb(50,50,50)"/>
<path d="M 0.00 112.50 L 0.00 0.00 L 112.50 0.00 L 225.00 0.00 L 225.00 112.50 L 225.00 225.00 L 112.50 225.00 L 0.00 225.00 L 0.00 112.50 ZM 125.53 189.47 C150.27,185.15 171.09,169.68 181.99,147.50 C188.80,133.66 190.36,127.10 190.33,112.50 C190.30,98.90 188.77,91.73 183.43,80.16 C172.86,57.26 153.26,41.57 128.68,36.34 C117.93,34.05 99.93,34.98 89.50,38.37 C65.18,46.26 46.49,64.91 38.28,89.50 C35.85,96.75 35.60,98.90 35.60,112.50 C35.60,126.14 35.85,128.22 38.30,135.50 C42.75,148.72 48.22,157.44 58.40,167.51 C65.16,174.20 69.55,177.59 75.50,180.68 C93.58,190.08 107.74,192.57 125.53,189.47 ZM 105.71 167.37 C105.32,166.98 105.00,163.65 105.00,159.97 L 105.00 153.27 L 100.49 151.55 C95.27,149.55 87.88,142.57 84.72,136.63 C82.77,132.97 82.48,130.67 82.18,116.42 L 81.83 100.33 L 78.92 98.61 C73.10,95.17 74.28,86.85 80.87,85.02 C82.86,84.47 85.96,84.01 87.75,84.01 L 91.00 84.00 L 91.00 72.57 C91.00,60.16 91.82,58.00 96.54,58.00 C100.16,58.00 101.00,60.81 101.00,72.93 L 101.00 84.00 L 113.00 84.00 L 125.00 84.00 L 125.00 72.20 C125.00,59.81 125.57,58.00 129.50,58.00 C133.43,58.00 134.00,59.81 134.00,72.20 L 134.00 84.00 L 139.37 84.00 C146.58,84.00 150.00,86.57 150.00,92.00 C150.00,95.06 149.40,96.33 147.08,98.18 L 144.16 100.50 L 143.83 115.50 C143.52,129.56 143.32,130.86 140.70,136.20 C137.53,142.66 129.72,150.28 124.51,152.00 L 121.09 153.13 L 120.79 160.31 L 120.50 167.50 L 113.46 167.79 C109.58,167.95 106.09,167.76 105.71,167.37 Z" fill="rgb(254,254,254)"/>
</g>
</svg>